<?xml version="1.0" standalone="no"?>
<!DOCTYPE svg PUBLIC "-//W3C//DTD SVG 20010904//EN"
 "http://www.w3.org/TR/2001/REC-SVG-20010904/DTD/svg10.dtd">
<svg version="1.0" xmlns="http://www.w3.org/2000/svg"
 width="512.000000pt" height="512.000000pt" viewBox="0 0 512.000000 512.000000"
 preserveAspectRatio="xMidYMid meet">
<metadata>
Created by potrace 1.11, written by Peter Selinger 2001-2013
</metadata>
<g transform="translate(0.000000,512.000000) scale(0.100000,-0.100000)"
fill="#000000" stroke="none">
<path d="M2400 5113 c-326 -24 -659 -111 -945 -248 -433 -208 -805 -541 -1059
-949 -90 -144 -185 -335 -235 -473 -82 -227 -148 -544 -133 -643 10 -65 24
-35 28 60 2 43 10 90 19 106 8 16 15 41 15 56 0 30 19 78 31 78 6 0 11 12 24
63 2 4 3 17 4 30 0 13 8 32 16 43 14 18 14 17 5 -9 -12 -35 -12 -37 0 -37 5 0
12 17 15 38 8 47 31 142 40 165 5 12 3 17 -6 15 -17 -4 -15 13 6 71 18 50 45
77 57 58 5 -8 8 -7 8 3 1 12 4 11 15 -4 13 -17 15 -17 34 15 26 42 26 48 1 42
-25 -7 -26 12 -2 90 11 33 28 64 40 73 22 15 32 41 11 28 -16 -10 6 29 26 46
9 7 23 27 31 44 14 29 13 29 -22 -9 l-37 -40 23 40 c13 22 35 58 49 79 14 22
34 53 45 70 32 54 90 120 94 107 2 -6 -1 -18 -7 -25 -6 -7 -8 -16 -4 -19 9 -9
34 43 27 55 -3 5 6 22 21 38 23 24 31 41 34 73 1 8 45 28 71 32 8 1 48 11 87
22 44 12 70 16 66 9 -4 -6 3 -2 16 8 14 13 18 22 10 26 -6 4 0 9 15 12 14 3
27 0 29 -6 3 -8 11 -7 26 2 21 12 22 12 11 -8 -13 -24 -4 -42 10 -20 5 8 12
11 16 7 4 -3 -13 -25 -37 -47 -24 -22 -40 -40 -36 -40 5 0 -1 -13 -12 -29 -28
-39 -27 -42 9 -24 22 11 29 20 25 33 -7 21 3 50 18 50 6 0 19 7 29 17 10 9 18
11 18 5 0 -6 -5 -14 -10 -17 -6 -4 -8 -11 -5 -16 3 -5 -1 -6 -9 -3 -25 10 -37
-4 -23 -27 10 -16 8 -22 -16 -43 -18 -16 -24 -27 -17 -31 6 -4 18 1 25 11 8
11 15 15 15 10 0 -11 -72 -91 -83 -91 -4 0 -18 -10 -31 -22 -12 -12 -34 -27
-49 -34 -14 -6 -23 -17 -21 -24 3 -7 -2 -20 -11 -29 -9 -9 -15 -21 -13 -28 3
-8 11 -5 24 8 11 10 28 26 39 34 17 14 18 13 12 -8 -5 -22 -4 -23 12 -8 10 9
23 16 29 16 7 0 12 5 12 11 0 5 4 8 9 5 5 -3 12 1 15 10 5 13 2 15 -14 11 -16
-4 -11 6 22 41 24 26 47 46 51 44 5 -1 6 2 3 7 -9 14 33 61 55 61 12 0 17 -4
13 -11 -3 -6 -1 -15 5 -18 14 -9 -18 -73 -34 -67 -6 2 -11 -17 -12 -43 -2 -25
-8 -65 -14 -89 -7 -23 -9 -45 -6 -48 9 -9 52 20 52 36 0 8 11 17 25 20 18 5
24 12 22 26 -2 10 -5 31 -7 46 -6 36 19 57 47 39 17 -11 19 -10 16 6 -5 26
-36 28 -63 3 -14 -13 -25 -18 -29 -11 -7 11 17 66 34 76 6 4 8 10 5 14 -2 5 5
17 17 27 21 19 21 19 7 -3 -11 -18 -11 -25 -1 -35 9 -9 12 -8 12 6 0 10 8 26
18 35 9 9 22 25 28 36 7 13 23 21 45 22 59 3 73 7 97 31 13 12 27 22 31 22 13
0 24 -34 12 -38 -6 -2 -11 -13 -11 -25 0 -18 -2 -19 -10 -7 -9 13 -14 7 -11
-12 0 -5 -5 -8 -12 -8 -8 0 -8 -3 2 -9 15 -10 53 7 45 20 -7 12 12 20 30 13
14 -5 14 -9 4 -22 -11 -13 -10 -15 4 -9 12 4 15 2 11 -9 -3 -7 -9 -14 -14 -14
-5 0 -9 -13 -9 -29 0 -17 -4 -32 -9 -35 -5 -3 -11 -16 -13 -29 -4 -21 -1 -23
31 -23 20 1 53 11 75 24 29 17 42 20 52 12 10 -9 23 -2 56 28 51 47 79 58 107
40 23 -14 29 -42 9 -36 -7 3 -18 -5 -23 -16 -8 -15 -20 -21 -42 -21 -20 0 -29
-4 -26 -12 3 -7 -2 -13 -12 -13 -9 0 -14 -4 -10 -9 3 -5 1 -12 -5 -16 -5 -3
-10 -1 -10 5 0 6 -6 8 -12 4 -7 -4 -4 2 6 14 11 12 17 25 13 28 -9 9 -28 -6
-36 -30 -6 -16 -2 -26 18 -44 20 -19 21 -22 5 -13 -12 5 -25 6 -30 2 -5 -5
-18 -11 -28 -13 -13 -2 -20 -12 -20 -30 l-2 -28 24 28 c19 23 22 24 17 6 -6
-25 21 -29 46 -7 12 10 28 12 53 8 30 -6 36 -12 36 -32 0 -13 -4 -22 -9 -18
-17 10 -21 -13 -5 -29 14 -15 14 -16 -3 -17 -10 -1 -25 -1 -33 0 -10 0 -11 -1
-2 -5 6 -3 12 -14 12 -25 0 -10 5 -19 10 -19 6 0 10 5 10 10 0 6 4 10 10 10 5
0 7 -7 3 -16 -5 -13 -16 -15 -54 -11 -36 4 -49 2 -53 -9 -4 -10 2 -14 22 -15
26 -1 26 -1 -5 -10 -18 -5 -33 -14 -33 -18 0 -5 -3 -18 -6 -28 -6 -17 -6 -17
8 1 10 13 17 15 22 8 4 -7 2 -12 -3 -12 -6 0 -10 -3 -10 -7 3 -20 -3 -23 -22
-12 -16 8 -24 8 -33 -1 -8 -8 -6 -9 7 -4 13 5 18 3 15 -7 -1 -8 -1 -16 2 -18
8 -7 50 10 50 20 0 5 5 9 11 9 6 0 9 -7 5 -15 -8 -21 0 -19 24 7 l20 22 -10
-31 c-7 -17 -20 -33 -32 -36 -18 -5 -19 -8 -8 -21 10 -14 9 -16 -6 -16 -19 -1
-54 -22 -54 -34 0 -3 16 -6 36 -6 24 0 33 -4 28 -12 -11 -17 -13 -59 -3 -52 5
3 7 10 3 15 -3 5 1 21 10 34 9 14 17 36 18 50 2 17 7 24 16 20 10 -3 12 0 8
10 -3 8 -2 15 3 15 18 0 20 -15 5 -37 -8 -13 -13 -34 -11 -46 l4 -22 9 22 c7
16 13 20 24 13 12 -8 13 -13 3 -30 -17 -27 -16 -35 2 -20 26 22 29 2 3 -22
-14 -13 -23 -29 -20 -37 3 -9 0 -11 -8 -6 -10 6 -12 4 -7 -8 4 -11 1 -17 -8
-17 -21 0 -19 -27 3 -39 9 -6 13 -11 7 -11 -5 0 -5 -4 2 -8 23 -15 19 -45 -7
-52 -14 -3 -26 -15 -28 -25 -6 -30 -28 -50 -58 -53 -36 -3 -44 -12 -11 -12 15
0 27 -3 27 -7 -1 -16 -29 -45 -38 -39 -6 3 -8 -2 -5 -13 3 -13 -2 -23 -16 -30
-12 -7 -21 -19 -21 -27 0 -8 -4 -12 -10 -9 -5 3 -10 1 -10 -4 0 -6 7 -11 15
-11 8 0 15 -4 15 -9 0 -5 -7 -14 -15 -21 -12 -10 -15 -10 -15 4 0 9 -5 16 -11
16 -6 0 -9 -7 -5 -15 3 -8 1 -25 -4 -37 -7 -19 -9 -20 -9 -4 -1 16 -3 17 -18
5 -13 -11 -17 -11 -20 -1 -12 34 -77 -8 -78 -51 0 -15 -7 -23 -21 -25 -12 -2
-34 -16 -49 -33 -16 -16 -34 -29 -42 -29 -7 0 -26 -13 -43 -30 -28 -27 -50
-35 -90 -31 -12 1 -12 -1 2 -12 15 -12 12 -13 -19 -14 -19 -1 -40 -6 -46 -12
-6 -6 -19 -11 -28 -11 -9 0 -19 -6 -22 -14 -4 -10 0 -12 14 -9 11 3 19 0 19
-7 0 -14 38 -50 52 -50 5 0 6 -4 3 -10 -10 -16 5 -12 22 6 9 9 18 30 20 48 4
42 10 56 23 56 6 0 8 -5 5 -10 -10 -16 5 -68 21 -74 10 -4 13 -1 9 7 -4 6 2 2
13 -10 26 -29 36 -18 15 17 -20 35 -12 56 24 64 16 4 42 20 57 37 19 20 31 27
36 19 5 -7 9 -3 13 11 5 19 9 21 19 11 9 -9 8 -15 -7 -26 -11 -8 -23 -12 -27
-10 -4 3 -16 -11 -25 -31 -15 -31 -15 -37 -3 -45 8 -6 10 -10 4 -10 -10 0 -9
-68 1 -78 2 -2 15 4 29 13 20 14 25 14 21 3 -5 -13 14 -18 88 -21 9 -1 17 -4
17 -8 0 -4 9 -9 20 -12 26 -7 26 -27 0 -34 -11 -3 -20 -12 -20 -19 0 -20 29
-29 43 -15 21 21 28 11 10 -13 -14 -18 -22 -22 -35 -15 -14 7 -21 3 -33 -20
-8 -17 -15 -39 -15 -51 0 -21 -16 -26 -39 -11 -12 8 -12 12 -2 25 11 13 11 16
-3 16 -9 0 -16 -6 -16 -14 0 -8 -5 -16 -11 -18 -8 -3 -6 -10 5 -21 10 -9 22
-15 27 -12 5 3 19 0 31 -6 l23 -12 -28 -12 c-35 -14 -107 -11 -117 5 -6 9 -9
9 -14 -1 -5 -11 -7 -11 -12 -1 -3 6 -10 10 -15 6 -5 -3 -16 2 -25 10 -8 9 -26
16 -40 16 -13 0 -24 5 -24 10 0 6 -7 10 -15 10 -7 0 -19 8 -24 17 -9 16 -12
16 -21 3 -5 -8 -10 -10 -10 -4 0 6 -18 17 -40 24 -31 10 -43 10 -54 1 -11 -10
-18 -8 -35 10 -23 25 -29 48 -8 31 14 -12 87 -14 87 -2 0 4 9 6 20 3 11 -3 20
-1 20 5 0 12 37 22 56 15 10 -3 12 -13 8 -27 -4 -12 -3 -17 2 -13 5 5 9 27 10
49 0 35 -1 38 -13 22 -7 -10 -13 -12 -13 -6 0 7 -11 12 -24 12 -14 0 -27 4
-31 10 -3 5 -13 6 -22 3 -12 -5 -15 -2 -10 10 5 14 0 17 -33 17 -22 0 -40 5
-40 11 0 6 -14 9 -33 7 -30 -3 -32 -6 -32 -41 0 -20 -3 -37 -7 -37 -5 0 -8 10
-8 23 -1 21 -1 21 -25 -6 -28 -32 -34 -19 -9 19 20 29 13 42 -10 19 -14 -15
-18 -15 -31 -1 -12 11 -13 21 -5 43 9 25 8 26 -4 11 -7 -10 -19 -18 -27 -18
-12 0 -12 -2 -1 -9 19 -12 -22 -22 -59 -14 -16 3 -29 2 -30 -3 0 -5 -2 -20 -4
-34 -2 -14 -2 -20 1 -14 3 6 16 9 31 6 17 -3 29 1 35 12 5 9 14 16 21 16 9 0
8 -3 -1 -9 -10 -6 -10 -10 3 -21 10 -8 15 -9 15 -1 0 6 4 11 8 11 13 0 13 -78
1 -86 -8 -4 -7 -9 2 -15 10 -6 8 -9 -8 -10 -13 -1 -29 -2 -35 -3 -24 -2 -27
-20 -7 -37 23 -20 15 -28 -28 -27 -21 1 -30 5 -26 13 2 7 -2 16 -9 21 -7 4
-10 4 -6 -1 4 -4 3 -16 -3 -26 -8 -16 -6 -19 10 -19 18 0 20 -5 14 -32 -3 -18
-11 -37 -17 -41 -7 -6 -6 -7 3 -5 15 4 25 19 35 51 3 9 15 17 26 17 13 0 19
-4 14 -11 -4 -8 1 -9 16 -4 20 6 21 5 15 -23 -4 -21 -1 -34 10 -46 17 -17 45
-22 45 -8 0 5 7 17 15 28 11 15 14 16 15 4 0 -8 -11 -27 -23 -40 -17 -18 -22
-31 -16 -45 11 -29 11 -47 -1 -40 -5 3 -10 -1 -10 -9 0 -8 4 -17 9 -20 15 -10
40 5 34 20 -3 9 0 12 8 9 8 -3 20 -1 28 4 12 8 13 14 3 35 -10 22 -9 26 3 26
10 0 15 -10 15 -29 0 -16 6 -31 13 -34 7 -2 8 -8 3 -13 -5 -5 -11 -4 -13 4 -3
6 -9 10 -14 6 -12 -7 -11 -51 2 -59 6 -4 8 -13 5 -21 -3 -8 0 -11 10 -7 18 7
18 13 -3 30 -16 13 -16 13 4 4 12 -6 30 -11 40 -11 15 0 16 2 3 10 -20 13 -8
13 26 0 31 -12 66 6 42 21 -9 6 -7 9 7 10 11 0 30 2 42 3 15 2 23 -4 28 -21 3
-13 9 -23 14 -23 11 0 41 -57 41 -77 0 -8 -5 -11 -10 -8 -16 10 -7 -18 10 -32
13 -10 12 -15 -7 -35 l-23 -22 0 21 c0 12 -5 25 -12 29 -7 5 -8 3 -3 -6 4 -7
2 -16 -6 -21 -12 -8 -12 -11 1 -19 10 -6 11 -13 5 -17 -6 -5 -10 -21 -10 -36
1 -20 -3 -26 -13 -22 -12 5 -13 3 -2 -10 10 -12 11 -18 1 -28 -10 -9 -11 -8
-6 5 4 11 2 18 -4 18 -6 0 -14 -12 -17 -26 -4 -16 -11 -23 -21 -20 -8 3 -11 1
-8 -4 3 -6 1 -10 -4 -10 -6 0 -11 4 -11 8 0 5 -10 19 -21 31 -18 19 -19 25 -8
33 11 7 11 11 2 14 -7 3 -15 21 -19 40 -3 18 -10 32 -14 29 -5 -3 -15 4 -24
16 -8 12 -19 18 -25 14 -14 -8 -14 -35 0 -35 5 0 7 -5 3 -12 -4 -6 -3 -8 4 -5
5 4 17 5 25 1 18 -6 11 -43 -11 -61 -13 -11 -13 -15 -1 -30 13 -16 12 -17 -3
-4 -24 18 -22 5 4 -32 12 -17 17 -27 10 -23 -7 4 -12 2 -12 -6 0 -8 -13 -25
-30 -40 -26 -23 -32 -24 -54 -13 -13 7 -27 11 -30 7 -3 -3 -6 1 -6 8 0 10 -5
9 -18 -3 -22 -20 -35 -12 -22 13 7 13 6 20 -5 24 -8 3 -14 2 -14 -2 3 -21 -3
-32 -18 -33 -11 0 -13 -3 -5 -6 6 -2 12 -12 12 -21 0 -10 -3 -13 -8 -7 -4 6
-16 10 -27 10 -12 0 -20 6 -19 15 1 10 -8 17 -23 18 -24 2 -24 0 -19 -48 3
-28 3 -50 1 -50 -2 0 -11 12 -19 28 -8 15 -15 21 -16 13 0 -7 -6 -11 -15 -7
-12 4 -15 -4 -15 -38 0 -30 5 -46 15 -50 8 -3 12 -12 9 -21 -4 -9 1 -17 11
-21 13 -5 16 -14 11 -38 -4 -19 -3 -26 3 -17 6 10 10 10 16 1 4 -7 3 -15 -2
-19 -14 -9 -11 -82 3 -77 7 3 10 -3 7 -14 -3 -12 2 -20 16 -25 17 -5 19 -10
11 -25 -9 -17 -13 -17 -37 -5 -15 8 -30 12 -33 8 -3 -3 1 -8 8 -10 6 -3 10 -9
7 -14 -4 -5 1 -6 9 -3 9 3 16 1 16 -6 0 -6 5 -8 12 -4 8 5 9 0 6 -14 -4 -13
-1 -22 5 -22 8 0 7 -4 -2 -9 -10 -7 -10 -10 -1 -13 19 -6 19 -51 1 -65 -14
-11 -13 -12 7 -13 14 0 22 -5 20 -12 -3 -7 8 -25 24 -40 15 -15 28 -32 28 -38
0 -6 5 -8 10 -5 6 4 10 -7 10 -25 0 -18 -4 -29 -10 -25 -6 3 -10 13 -10 21 0
8 -4 13 -9 10 -4 -3 -16 3 -26 14 -14 15 -21 17 -26 8 -5 -8 -10 -1 -14 18 -8
37 -38 103 -45 99 -3 -2 -12 4 -20 13 -13 14 -12 15 3 9 15 -6 16 -4 7 13 -6
11 -13 20 -16 20 -3 0 -3 -4 1 -9 3 -5 1 -12 -4 -15 -5 -3 -8 -24 -7 -46 1
-43 -7 -51 -23 -23 -6 10 -11 14 -11 8 0 -5 -7 4 -16 20 -9 17 -16 42 -15 58
1 15 -4 27 -10 27 -6 0 -8 8 -4 19 5 16 1 18 -25 15 -26 -3 -34 1 -51 31 -14
23 -28 35 -43 35 -14 0 -28 11 -39 30 -14 23 -15 30 -5 30 8 0 19 -5 26 -12 6
-6 15 -9 19 -5 4 4 1 13 -5 19 -7 7 -12 17 -12 23 0 5 5 3 10 -5 5 -8 10 -10
10 -4 0 15 -35 46 -43 37 -4 -3 -8 0 -8 8 -1 8 -5 1 -9 -16 l-8 -30 -1 29 c0
16 -7 37 -14 45 -31 36 -71 190 -60 231 l6 23 18 -24 18 -24 -6 25 c-3 14 -10
28 -15 31 -5 3 -11 12 -12 20 -14 62 -20 79 -27 79 -5 0 -6 6 -3 14 3 7 -2 16
-11 20 -10 3 -15 12 -12 19 3 8 1 20 -4 28 -7 11 -9 10 -9 -6 -1 -16 -4 -13
-15 10 -11 25 -14 27 -16 10 -1 -11 -3 -24 -4 -30 -2 -5 -3 -21 -4 -35 -2 -23
-3 -22 -15 10 -39 101 -59 134 -56 88 5 -59 -2 -61 -26 -9 -13 30 -26 52 -28
50 -8 -10 7 -78 17 -72 7 4 8 0 4 -12 -4 -9 6 -70 22 -134 245 -963 1061
-1710 2051 -1875 563 -94 1153 5 1645 277 432 238 784 590 1022 1022 148 268
247 573 295 910 17 118 17 512 0 630 -70 489 -256 927 -549 1290 -161 200
-405 417 -628 559 -113 72 -359 193 -489 241 -313 115 -712 172 -1036 148z
m-865 -312 c31 12 42 10 42 -6 0 -8 -4 -15 -9 -15 -18 0 -6 -19 15 -22 19 -3
18 -6 -15 -22 -43 -21 -49 -29 -14 -20 13 3 27 1 30 -5 4 -6 1 -11 -6 -11 -7
0 -18 -10 -23 -22 -6 -13 -25 -27 -46 -33 -20 -5 -54 -22 -76 -37 -21 -16 -43
-28 -47 -28 -5 0 -22 -11 -38 -25 -16 -14 -33 -23 -38 -20 -4 3 -14 -3 -21
-12 -12 -14 -11 -15 9 -9 48 16 11 -34 -41 -53 -18 -7 -26 -7 -22 -1 3 6 1 10
-4 10 -6 0 -11 -7 -11 -16 0 -8 -4 -13 -9 -10 -4 3 -6 -5 -4 -17 2 -15 -5 -28
-22 -40 -24 -17 -24 -17 -18 0 6 16 5 16 -10 4 -15 -12 -17 -12 -11 2 5 15 2
15 -25 6 -18 -6 -28 -16 -24 -22 3 -5 2 -7 -4 -4 -6 4 -21 -5 -34 -20 -20 -22
-21 -25 -5 -19 16 5 17 4 6 -9 -11 -14 -14 -13 -25 2 -8 10 -10 20 -5 23 4 3
11 16 15 30 l8 25 -24 -20 c-17 -14 -15 -10 6 15 17 19 41 50 54 68 l23 33
-33 -16 c-28 -15 -57 -43 -94 -92 -6 -7 -15 -9 -22 -5 -10 6 -10 12 2 28 13
16 14 16 9 2 -8 -24 -1 -23 22 3 18 20 18 20 -11 14 -17 -4 -37 -7 -45 -7 -8
-1 -17 -4 -20 -7 -3 -3 -16 -12 -30 -20 -24 -13 -24 -12 4 17 25 28 26 30 7
25 -31 -8 -26 4 9 22 16 8 33 27 36 41 4 14 8 23 11 21 2 -3 21 12 41 32 21
20 51 44 67 52 17 9 51 27 78 40 26 13 47 27 47 32 0 4 10 11 23 16 13 5 36
20 53 34 37 31 72 49 82 43 5 -3 28 2 52 10 24 8 54 13 67 9 14 -3 23 -1 23 6
0 8 4 8 13 1 7 -5 21 -6 32 -1z m588 -51 c-4 -16 -8 -18 -20 -9 -11 10 -11 14
-1 20 21 14 26 10 21 -11z m23 -8 c-17 -16 -18 -16 -5 5 7 12 15 20 18 17 3
-2 -3 -12 -13 -22z m-53 -16 c4 -9 -2 -12 -20 -10 -20 2 -24 -1 -20 -17 3 -10
1 -17 -4 -13 -15 9 -10 32 9 43 23 14 29 13 35 -3z m-113 -11 c0 -2 -10 -9
-22 -15 -22 -11 -22 -10 -4 4 21 17 26 19 26 11z m28 -30 c0 -20 -3 -23 -14
-14 -11 9 -14 8 -14 -6 0 -10 -3 -16 -6 -12 -8 8 -44 -25 -44 -41 0 -7 -5 -10
-11 -7 -5 4 -8 12 -6 18 2 7 1 19 -4 27 -5 12 -2 16 12 16 10 0 19 -5 19 -11
0 -5 12 5 26 23 31 39 42 40 42 7z m-133 -5 c-3 -5 -14 -10 -23 -10 -15 0 -15
2 -2 10 20 13 33 13 25 0z m215 -10 c0 -5 -4 -10 -10 -10 -5 0 -10 5 -10 10 0
6 5 10 10 10 6 0 10 -4 10 -10z m170 0 c0 -5 -5 -10 -11 -10 -5 0 -7 5 -4 10
3 6 8 10 11 10 2 0 4 -4 4 -10z m-370 -45 c-7 -9 -15 -13 -17 -11 -6 6 20 36
26 30 2 -2 -2 -10 -9 -19z m460 -17 c0 -11 -7 -10 -31 2 -28 16 -23 32 6 18
14 -6 25 -15 25 -20z m-735 12 c-3 -5 2 -10 13 -10 10 0 19 -6 19 -14 0 -8 -6
-12 -13 -9 -7 2 -22 -1 -35 -7 -19 -11 -21 -10 -16 3 4 12 2 14 -10 10 -11 -4
-14 -2 -9 5 4 7 14 12 22 12 8 0 14 5 14 10 0 6 5 10 11 10 5 0 7 -4 4 -10z
m205 -13 c-14 -8 -36 -20 -50 -27 -32 -18 -74 -25 -65 -10 3 5 14 10 23 10 9
1 33 9 52 19 19 11 42 19 50 20 8 0 4 -5 -10 -12z m425 2 c11 -17 -1 -21 -15
-4 -8 9 -8 15 -2 15 6 0 14 -5 17 -11z m-510 -9 c-3 -5 -12 -10 -18 -10 -7 0
-6 4 3 10 19 12 23 12 15 0z m105 -20 c-24 -15 -37 -11 -16 5 11 8 22 12 25 9
3 -3 -1 -9 -9 -14z m64 -1 c-3 -5 0 -9 5 -9 6 0 11 4 11 9 0 5 6 11 14 14 10
4 12 0 8 -15 -4 -15 -11 -19 -33 -16 -19 3 -35 -2 -45 -13 -16 -17 -15 -18 15
-9 45 13 38 -5 -9 -24 -49 -20 -47 -19 -54 0 -6 16 17 47 31 42 4 -2 12 6 17
18 6 14 16 20 28 16 10 -2 15 -8 12 -13z m-223 -2 c-6 -8 -7 -18 -3 -22 4 -5
1 -5 -6 -1 -10 6 -10 11 -1 22 6 8 14 14 16 14 3 0 0 -6 -6 -13z m109 -51
l-22 -21 12 25 c10 19 10 25 0 28 -9 3 -9 6 1 13 26 16 33 -21 9 -45z m280 40
c0 -3 -4 -8 -10 -11 -5 -3 -10 -1 -10 4 0 6 5 11 10 11 6 0 10 -2 10 -4z m-70
-36 c0 -5 -9 -10 -19 -10 -11 0 -23 -4 -26 -10 -3 -5 -16 -10 -28 -10 -20 0
-20 1 5 14 15 8 35 16 45 19 10 3 19 5 21 6 1 0 2 -3 2 -9z m364 2 c3 -5 -1
-9 -9 -9 -8 0 -12 4 -9 9 3 4 7 8 9 8 2 0 6 -4 9 -8z m-719 -74 c-55 -62 -59
-66 -52 -45 4 9 2 17 -3 17 -6 0 -10 -11 -10 -25 0 -14 -5 -25 -11 -25 -5 0
-7 5 -4 10 3 6 -3 10 -13 10 -11 0 -23 -8 -27 -17 -6 -17 -7 -17 -20 1 -8 10
-18 15 -24 11 -6 -3 -11 0 -11 7 0 7 15 19 33 27 17 7 47 20 65 28 18 8 40 12
48 9 8 -3 14 -1 14 5 0 8 30 25 49 28 2 1 -14 -18 -34 -41z m229 28 c-6 -15
-84 -56 -106 -56 -7 0 4 11 25 25 20 14 41 24 46 21 5 -3 14 1 21 9 16 19 21
19 14 1z m162 -1 c-1 -8 -6 -18 -11 -22 -4 -4 -5 -2 -1 5 6 10 1 11 -18 6 -26
-6 -37 10 -13 19 25 10 45 7 43 -8z m148 1 c-3 -8 -15 -17 -27 -20 -21 -5 -20
-4 3 14 30 24 31 24 24 6z m-674 0 c0 -2 -8 -10 -17 -17 -16 -13 -17 -12 -4 4
13 16 21 21 21 13z m733 -10 c4 -10 0 -12 -14 -9 -10 3 -16 9 -13 14 8 13 21
11 27 -5z m123 -12 c-3 -8 2 -23 11 -32 15 -16 15 -17 0 -20 -9 -2 -17 -8 -17
-13 0 -5 -7 -9 -15 -9 -8 0 -15 -8 -15 -17 0 -14 -3 -14 -12 -5 -10 10 -10 15
2 22 8 5 15 13 16 17 2 30 17 73 26 73 6 0 7 -7 4 -16z m51 2 c-19 -15 -6 -33
14 -20 7 4 10 1 7 -7 -7 -21 -34 -23 -42 -3 -7 18 10 44 28 44 6 0 3 -7 -7
-14z m-715 -16 c-3 -8 -15 -23 -27 -32 -24 -20 -50 -24 -38 -5 4 6 8 14 9 17
5 25 19 39 39 38 16 -2 21 -7 17 -18z m209 7 c-6 -8 -8 -17 -4 -20 6 -6 -19
-11 -39 -8 -4 0 -19 -4 -33 -9 -14 -5 -25 -6 -25 -2 0 9 57 39 85 45 11 3 22
5 24 6 2 0 -2 -5 -8 -12z m409 -8 c0 -5 -4 -9 -10 -9 -5 0 -10 7 -10 16 0 8 5
12 10 9 6 -3 10 -10 10 -16z m-889 -2 c-7 -7 -14 -8 -21 -1 -6 6 -2 10 12 11
16 2 18 -1 9 -10z m754 3 c-3 -5 -14 -10 -23 -10 -15 0 -15 2 -2 10 20 13 33
13 25 0z m-680 -10 c-3 -5 -14 -10 -23 -10 -15 0 -15 2 -2 10 20 13 33 13 25
0z m490 -4 c-11 -8 -24 -12 -29 -8 -5 3 -1 9 10 13 31 12 39 10 19 -5z m500 4
c-3 -5 -12 -10 -20 -10 -8 0 -17 5 -20 10 -4 6 5 10 20 10 15 0 24 -4 20 -10z
m-251 -26 c-18 -15 -18 -15 0 -10 16 5 17 4 6 -9 -9 -11 -17 -12 -33 -4 -17
10 -19 9 -14 -5 8 -20 -3 -21 -28 -2 -18 13 -18 14 3 20 12 4 20 11 17 15 -2
5 6 6 19 4 13 -3 27 0 31 7 4 6 10 9 13 6 3 -4 -3 -13 -14 -22z m-296 8 c7 -5
10 -16 6 -25 -5 -14 -2 -16 12 -10 17 6 18 5 4 -13 -30 -39 -39 -41 -66 -15
-17 15 -23 16 -37 6 -9 -6 -13 -16 -9 -20 4 -5 1 -5 -7 0 -11 7 -9 13 12 31
14 12 23 25 20 28 -4 3 -1 6 6 6 8 0 11 -7 7 -15 -3 -8 -1 -15 4 -15 6 0 10 5
10 10 0 6 7 10 15 10 8 0 15 4 15 10 0 5 -7 6 -17 3 -11 -4 -14 -3 -9 5 8 14
16 15 34 4z m114 -14 c-5 -21 -4 -22 14 -9 18 14 18 14 2 -4 -14 -15 -21 -16
-30 -7 -8 8 -8 15 2 27 17 20 19 19 12 -7z m-288 -55 c4 -9 0 -23 -8 -31 -13
-13 -15 -11 -14 16 1 35 12 42 22 15z m-644 -18 c0 -9 -6 -12 -16 -8 -13 5
-13 7 -2 14 17 11 18 11 18 -6z m1120 -15 c0 -5 -2 -10 -4 -10 -3 0 -8 5 -11
10 -3 6 -1 10 4 10 6 0 11 -4 11 -10z m210 6 c0 -3 -4 -8 -10 -11 -5 -3 -10
-1 -10 4 0 6 5 11 10 11 6 0 10 -2 10 -4z m-1695 -26 c-10 -11 -23 -20 -29
-20 -6 1 0 10 13 20 30 26 39 26 16 0z m1250 10 c-3 -5 -12 -10 -18 -10 -7 0
-6 4 3 10 19 12 23 12 15 0z m-65 -26 c0 -7 -12 -17 -27 -20 -15 -4 -34 -14
-42 -21 -24 -25 -25 -4 -1 22 13 14 19 25 14 25 -5 0 -3 4 5 9 18 12 51 2 51
-15z m-913 -50 c-3 -3 -12 -4 -19 -1 -8 3 -5 6 6 6 11 1 17 -2 13 -5z m447 -9
c-7 -18 17 -20 34 -3 7 7 12 8 12 2 0 -19 -39 -47 -55 -40 -9 3 -13 2 -10 -4
4 -6 0 -17 -8 -25 -13 -12 -14 -11 -14 12 0 16 6 27 18 30 10 3 16 9 13 14 -3
5 -2 14 1 19 9 15 15 12 9 -5z m296 11 c0 -2 -7 -7 -16 -10 -8 -3 -12 -2 -9 4
6 10 25 14 25 6z m143 -18 c-15 -24 -10 -58 9 -58 23 0 23 9 1 26 -10 7 -15
15 -11 19 4 4 20 -2 36 -14 16 -11 32 -18 35 -15 3 3 8 1 11 -4 5 -8 -94 -32
-133 -32 -6 0 -21 -9 -33 -20 -12 -11 -17 -20 -12 -20 6 0 15 5 21 11 11 11
55 18 145 22 26 2 50 6 55 11 5 5 -1 6 -12 3 -18 -7 -19 -6 -3 6 14 11 15 16
5 27 -10 10 -8 10 10 1 28 -14 36 -14 27 1 -4 7 -3 8 5 4 7 -5 8 -13 2 -24 -6
-10 -5 -20 3 -27 6 -5 10 -9 7 -8 -2 1 -10 -5 -19 -13 -13 -14 -13 -17 -1 -25
11 -7 9 -9 -8 -9 -13 0 -23 6 -23 13 0 14 -27 16 -48 3 -6 -4 -17 -4 -23 -1
-6 4 -13 -2 -16 -13 -3 -13 -11 -18 -19 -15 -8 3 -14 1 -14 -4 0 -5 9 -9 20
-10 11 -1 20 2 20 7 0 5 8 14 18 19 16 8 22 4 36 -27 10 -21 12 -32 5 -24 -15
14 -33 16 -24 2 3 -6 -1 -7 -9 -4 -18 7 -21 -7 -5 -23 7 -7 6 -12 -5 -16 -10
-4 -13 -1 -9 8 7 21 -57 13 -72 -9 -7 -9 -19 -16 -27 -16 -8 0 -18 -3 -22 -7
-4 -5 -17 -9 -29 -9 -12 -1 -34 -4 -50 -7 -16 -3 -25 -2 -22 4 4 5 15 9 26 9
13 0 18 4 13 12 -5 7 -3 8 6 3 10 -6 12 -3 8 13 -4 14 -2 22 7 22 7 0 12 -7
11 -16 0 -9 4 -18 9 -20 6 -2 10 11 9 29 0 39 5 57 18 57 5 0 6 -9 3 -20 -3
-11 -2 -20 4 -20 18 0 20 16 6 37 -10 14 -22 19 -40 16 -14 -3 -25 -9 -25 -14
0 -5 -7 -9 -15 -9 -9 0 -15 10 -15 26 0 19 4 25 15 20 19 -7 19 -1 -1 19 -14
13 -19 14 -26 3 -7 -9 -8 -5 -5 14 2 15 0 29 -6 31 -7 2 -6 10 1 23 8 14 12
15 12 4 1 -12 3 -12 14 3 13 17 14 17 20 0 4 -10 10 -13 14 -8 9 13 74 36 66
24 -9 -15 13 -10 26 6 15 18 35 20 23 3z m-298 -8 c-3 -5 -12 -10 -18 -10 -7
0 -6 4 3 10 19 12 23 12 15 0z m-1021 -45 c-9 -14 -18 -25 -21 -25 -5 0 5 18
20 38 17 22 18 13 1 -13z m926 -26 c0 -4 -13 -9 -29 -11 -30 -4 -32 8 -7 40 8
11 12 11 23 -4 7 -10 13 -21 13 -25z m748 16 c-3 -3 -9 2 -12 12 -6 14 -5 15
5 6 7 -7 10 -15 7 -18z m332 -30 c0 -8 -2 -15 -4 -15 -2 0 -6 7 -10 15 -3 8
-1 15 4 15 6 0 10 -7 10 -15z m-409 -54 c-6 -10 -7 -21 -4 -25 3 -3 1 -6 -5
-6 -13 0 -16 32 -5 43 14 14 23 6 14 -12z m-744 3 c-3 -3 -12 -4 -19 -1 -8 3
-5 6 6 6 11 1 17 -2 13 -5z m373 -18 c0 -3 -4 -8 -10 -11 -5 -3 -10 -1 -10 4
0 6 5 11 10 11 6 0 10 -2 10 -4z m313 -41 c-3 -9 -8 -14 -10 -11 -3 3 -2 9 2
15 9 16 15 13 8 -4z m-196 -31 c-3 -3 -12 -4 -19 -1 -8 3 -5 6 6 6 11 1 17 -2
13 -5z m318 -19 c-16 -7 -32 -11 -35 -9 -7 8 24 24 45 23 15 0 13 -4 -10 -14z
m-555 -15 c0 -5 -4 -10 -10 -10 -5 0 -10 5 -10 10 0 6 5 10 10 10 6 0 10 -4
10 -10z m482 3 c-9 -4 -10 -8 -2 -18 8 -10 6 -15 -10 -20 -11 -3 -18 -11 -15
-16 7 -10 -8 -13 -18 -3 -12 13 27 64 48 63 6 0 4 -3 -3 -6z m-88 -37 c-3 -9
-10 -16 -15 -16 -6 0 -5 9 1 21 13 24 24 20 14 -5z m135 7 c-25 -31 -49 -53
-49 -45 0 9 48 62 57 62 3 0 -1 -8 -8 -17z m-489 -7 c0 -2 -8 -10 -17 -17 -16
-13 -17 -12 -4 4 13 16 21 21 21 13z m-38 -68 c-6 -24 -18 -23 -25 1 -3 14 0
19 13 18 11 -1 15 -7 12 -19z m469 7 c5 4 6 -1 3 -9 -8 -20 -24 -11 -23 12 0
11 2 12 6 4 2 -6 9 -10 14 -7z m-435 -57 c-9 -12 -16 -19 -16 -15 0 11 24 47
28 42 2 -2 -3 -14 -12 -27z m521 4 c8 -5 -1 -8 -21 -8 -19 0 -32 4 -30 8 7 10
35 10 51 0z m-196 -30 c-13 -9 -37 -30 -53 -46 -24 -25 -27 -26 -20 -7 4 12
26 33 47 46 47 27 60 31 26 7z m339 -2 c0 -5 -8 -10 -17 -10 -15 0 -16 2 -3
10 19 12 20 12 20 0z m-610 -45 c-23 -28 -49 -37 -68 -25 -12 8 -12 10 -2 7 9
-3 29 6 45 19 32 25 46 24 25 -1z m-60 -62 c0 -9 -6 -13 -14 -10 -9 4 -16 -3
-20 -19 -4 -13 -11 -24 -17 -24 -11 0 -10 6 12 51 14 27 39 28 39 2z m-1436
-72 c3 -5 -1 -14 -8 -20 -12 -10 -13 -8 -9 8 6 23 9 25 17 12z m1636 -25 c0
-1 -5 -18 -11 -36 -10 -26 -14 -29 -21 -17 -5 11 -4 24 4 37 11 17 28 27 28
16z m-20 -156 c-8 -15 -17 -19 -35 -14 -17 4 -26 0 -34 -14 -14 -26 -14 -65
-1 -57 6 3 7 -1 4 -9 -3 -9 -10 -14 -14 -11 -11 7 -42 -58 -40 -82 3 -27 -11
-64 -22 -57 -5 3 -7 12 -4 20 3 8 1 14 -4 14 -14 0 -22 -19 -15 -39 7 -23 61
-26 69 -4 3 7 13 13 22 13 15 0 14 4 -6 25 -19 20 -20 25 -7 25 10 0 14 6 11
14 -3 8 -1 17 5 20 5 4 12 -3 16 -13 3 -11 12 -18 19 -15 18 7 27 -21 16 -48
l-10 -23 3 24 c1 13 -3 26 -9 28 -6 2 -11 -9 -12 -27 0 -22 4 -30 16 -30 12 0
18 -9 20 -25 1 -16 -3 -25 -12 -25 -8 0 -16 -5 -18 -12 -3 -7 -7 -5 -11 6 -4
9 -3 15 3 11 5 -3 8 4 7 15 -1 11 -2 20 -3 20 -1 0 -14 -6 -29 -14 -15 -8 -22
-17 -16 -21 6 -3 11 -15 11 -26 0 -11 7 -19 18 -20 16 -1 16 -2 0 -6 -21 -5
-21 -8 -8 -33 8 -14 7 -25 -2 -40 -10 -15 -10 -22 0 -32 6 -6 15 -8 19 -4 4 4
2 10 -4 14 -8 5 -7 13 4 27 15 20 15 20 11 0 -4 -19 23 -54 58 -73 13 -7 14
-13 5 -30 -9 -18 -8 -19 11 -14 14 3 19 1 14 -6 -4 -7 -2 -12 3 -12 6 0 11 -7
11 -15 0 -8 3 -15 8 -15 4 0 8 -12 8 -26 1 -16 -2 -24 -10 -21 -9 4 -11 -3 -8
-19 3 -18 9 -23 22 -19 19 6 24 -21 8 -42 -7 -9 -6 -15 5 -19 22 -8 30 -34 16
-50 -10 -12 -8 -13 6 -8 13 5 16 4 11 -5 -4 -6 -2 -18 4 -26 10 -12 9 -15 -4
-15 -10 0 -14 -4 -11 -10 3 -5 3 -10 -2 -10 -4 0 -17 -7 -27 -15 -18 -14 -18
-15 4 -33 l24 -19 -22 -7 c-12 -4 -19 -12 -16 -18 4 -6 1 -14 -6 -18 -9 -5 -9
-9 -1 -14 6 -4 15 4 21 18 5 14 15 26 21 26 6 0 8 -7 5 -16 -3 -8 -2 -13 3 -9
5 3 12 -1 14 -7 3 -8 6 -6 6 5 1 9 6 17 12 17 7 0 9 -10 5 -26 -5 -19 -4 -24
6 -18 7 4 5 -2 -4 -13 -22 -24 -24 -40 -3 -23 24 20 38 1 31 -42 -7 -40 12
-86 29 -70 5 4 5 1 0 -7 -6 -10 -3 -12 12 -7 13 4 20 2 20 -8 0 -9 -4 -13 -9
-10 -21 13 -26 -9 -6 -26 21 -18 21 -19 4 -20 -16 0 -17 -2 -5 -17 12 -15 12
-16 -3 -10 -10 3 -20 2 -23 -2 -3 -5 2 -11 10 -15 8 -3 17 0 21 5 3 6 15 9 25
6 10 -3 20 0 23 7 3 8 5 8 5 0 1 -7 -10 -19 -24 -28 -14 -9 -25 -21 -25 -27 0
-8 4 -8 13 -1 7 6 18 7 26 3 9 -6 10 -11 2 -15 -6 -4 -11 -3 -11 3 0 6 -20 -1
-44 -14 -47 -26 -72 -32 -61 -15 6 10 -15 14 -44 11 -7 -2 -10 2 -6 8 10 17
-27 13 -53 -5 -13 -9 -22 -11 -22 -4 0 6 -5 8 -12 4 -7 -5 -9 -2 -5 9 3 9 0
18 -9 21 -9 4 -12 2 -8 -5 4 -7 1 -10 -7 -7 -8 3 -14 10 -14 16 0 5 -4 14 -9
19 -5 5 -6 3 -2 -4 4 -7 2 -13 -4 -13 -7 0 -14 9 -17 20 -5 19 -14 24 -39 21
-7 -1 -14 8 -17 19 -4 17 -3 19 9 9 11 -9 14 -8 14 4 0 18 -56 61 -69 53 -5
-3 -12 1 -15 10 -3 8 -2 12 4 9 6 -3 10 0 10 9 0 8 -6 17 -12 19 -8 3 -6 6 5
6 9 1 17 -5 17 -11 1 -9 4 -8 13 2 7 8 25 16 40 17 24 1 26 -1 15 -15 -11 -14
-10 -15 6 -9 13 5 17 3 13 -7 -4 -9 4 -18 22 -25 15 -7 33 -20 41 -31 11 -15
18 -16 39 -8 38 14 82 18 75 7 -3 -5 0 -16 6 -24 16 -20 3 -19 -16 0 -17 17
-54 20 -54 5 0 -5 5 -11 10 -11 6 -1 16 -2 23 -3 6 -1 11 -9 9 -18 -4 -26 16
-31 40 -8 14 13 29 18 42 14 15 -4 12 1 -9 15 -17 12 -24 21 -15 21 23 0 40
33 25 47 -7 7 -15 10 -17 7 -6 -5 -8 19 -8 67 0 22 -4 36 -12 37 -7 1 -25 4
-40 8 -19 4 -28 2 -28 -5 0 -7 5 -9 12 -5 7 4 8 3 4 -5 -4 -6 -19 -11 -34 -10
-45 1 -104 -9 -114 -19 -6 -6 -17 -8 -24 -5 -8 3 -14 -1 -14 -8 0 -8 -6 -5
-15 7 -8 10 -15 16 -15 12 0 -12 -40 25 -40 37 0 6 3 6 8 -1 10 -15 96 -36
100 -24 2 6 10 10 18 10 8 0 11 6 8 15 -5 13 -9 13 -22 3 -13 -11 -15 -10 -9
4 4 12 2 15 -8 12 -7 -3 -23 0 -35 6 -18 9 -24 9 -30 0 -5 -9 -9 -9 -14 -1 -4
6 -2 11 5 11 9 0 9 3 -1 14 -6 8 -19 12 -28 9 -15 -5 -14 -3 2 15 19 22 43 31
31 12 -3 -5 -2 -10 4 -10 5 0 17 -3 27 -7 12 -4 15 -3 10 5 -4 7 -2 12 3 12 6
0 11 5 11 10 0 6 -5 10 -11 10 -19 0 -70 58 -58 66 8 4 9 3 5 -4 -4 -7 -5 -12
-2 -12 2 0 12 -3 22 -7 15 -6 14 -3 -4 17 -17 19 -25 21 -34 12 -15 -15 -42
-16 -33 -2 4 7 -6 10 -29 8 -27 -2 -33 -5 -24 -15 5 -7 14 -11 18 -8 4 3 7 -8
7 -23 0 -15 -2 -21 -4 -14 -6 16 -18 15 -37 -4 -13 -12 -18 -13 -30 -2 -11 11
-10 18 11 45 14 18 29 30 34 27 5 -3 9 0 9 5 0 17 -40 13 -46 -4 -11 -27 -22
-16 -19 20 5 54 15 77 31 71 19 -7 18 8 -1 24 -8 7 -15 19 -15 26 0 8 -3 13
-7 13 -23 -4 -32 3 -26 18 4 10 2 14 -4 10 -15 -9 -44 3 -37 14 3 5 1 9 -5 9
-5 0 -11 -5 -13 -11 -2 -7 -12 -7 -31 0 -18 7 -27 7 -27 0 0 -6 -4 -7 -10 -4
-5 3 -10 4 -10 1 0 -2 -3 -11 -6 -20 -4 -11 -1 -16 10 -16 9 0 16 -8 16 -17 0
-15 -2 -16 -10 -3 -5 8 -10 11 -10 5 0 -5 -5 -2 -11 8 -6 9 -8 26 -4 36 3 11
1 22 -5 26 -5 3 -10 14 -10 23 0 13 2 13 15 -4 14 -18 14 -17 3 9 -8 19 -15
24 -22 17 -16 -16 -26 -12 -26 13 0 12 -4 29 -9 36 -8 12 -11 9 -16 -12 -4
-15 -11 -27 -17 -27 -5 0 -7 -4 -3 -9 3 -5 1 -12 -5 -16 -9 -5 -12 1 -9 21 0
4 -5 11 -13 15 -10 7 -8 10 9 15 12 3 25 15 29 26 8 26 40 19 35 -7 -3 -19 -2
-19 15 -4 11 9 24 14 31 12 18 -6 53 29 53 54 0 12 8 27 18 32 15 9 15 10 -5
11 -19 0 -23 -6 -23 -28 0 -27 -15 -52 -32 -52 -9 0 -4 54 7 83 4 9 15 18 24
18 9 1 23 2 31 3 8 0 19 11 26 23 6 13 14 20 17 16 4 -3 7 1 7 9 0 8 9 27 21
42 11 14 17 26 13 26 -4 0 1 6 12 14 14 11 21 11 26 3 6 -9 8 -8 8 1 0 8 6 12
13 9 6 -2 20 0 31 5 13 7 21 6 27 -3 6 -10 9 -6 9 13 0 17 12 40 31 59 34 35
59 86 59 119 0 25 55 84 70 75 5 -3 16 6 22 21 9 20 14 23 16 11 2 -9 -2 -25
-8 -37z m-242 -92 c-2 -14 2 -22 10 -20 17 3 15 -13 -3 -28 -11 -9 -13 -16 -5
-24 5 -5 10 -17 10 -25 0 -9 -11 1 -24 21 -23 38 -27 63 -12 86 12 20 27 14
24 -10z m282 -30 c0 -16 -3 -19 -11 -11 -6 6 -8 16 -5 22 11 17 16 13 16 -11z
m169 -17 c9 -6 10 -11 2 -15 -13 -8 -31 1 -31 15 0 11 11 11 29 0z m-196 -24
c10 -10 16 -21 13 -24 -3 -4 -1 -12 5 -19 7 -8 6 -14 -2 -20 -8 -4 -9 -3 -5 4
4 7 2 12 -3 12 -6 0 -11 7 -11 15 0 8 -10 24 -22 35 -13 12 -17 20 -9 18 8 -2
23 -11 34 -21z m-290 2 c-6 -6 -9 -18 -6 -25 3 -8 0 -14 -6 -14 -6 0 -11 8
-11 18 0 21 8 32 24 32 6 0 6 -4 -1 -11z m412 -10 c11 -17 -1 -21 -15 -4 -8 9
-8 15 -2 15 6 0 14 -5 17 -11z m-440 -40 c4 -5 -1 -19 -10 -29 -9 -10 -15 -29
-13 -41 2 -16 -3 -25 -15 -27 -23 -5 -33 25 -14 46 8 9 18 27 21 40 8 24 21
29 31 11z m205 -29 c0 -5 -2 -10 -4 -10 -3 0 -8 5 -11 10 -3 6 -1 10 4 10 6 0
11 -4 11 -10z m160 6 c0 -3 -4 -8 -10 -11 -5 -3 -10 -1 -10 4 0 6 5 11 10 11
6 0 10 -2 10 -4z m-560 -166 c0 -16 -4 -30 -8 -30 -5 0 -7 14 -4 30 2 17 6 30
8 30 2 0 4 -13 4 -30z m460 10 c0 -5 -4 -10 -10 -10 -5 0 -10 5 -10 10 0 6 5
10 10 10 6 0 10 -4 10 -10z m112 -112 c-8 -8 -9 -4 -5 13 4 13 8 18 11 10 2
-7 -1 -18 -6 -23z m-719 10 c-4 -7 -8 -17 -8 -23 0 -5 -17 -11 -38 -12 -30 -1
-36 2 -27 12 6 7 19 11 29 8 11 -3 21 2 24 11 4 9 11 16 17 16 7 0 8 -5 3 -12z
m44 -150 c-3 -8 -6 -5 -6 6 -1 11 2 17 5 13 3 -3 4 -12 1 -19z m71 -19 c-2 -6
-7 -10 -11 -10 -4 1 -14 1 -23 1 -8 0 -12 5 -9 10 8 13 48 13 43 -1z m1094
-51 c-7 -7 -12 -8 -12 -2 0 14 12 26 19 19 2 -3 -1 -11 -7 -17z m8 -38 c0 -10
-10 -25 -22 -31 -22 -12 -22 -11 -5 8 9 11 17 25 17 31 0 7 2 12 5 12 3 0 5
-9 5 -20z m-1760 1 c0 -5 -9 -7 -20 -4 -11 3 -20 7 -20 9 0 2 9 4 20 4 11 0
20 -4 20 -9z m296 -47 c-3 -9 -6 -18 -6 -20 0 -2 -4 -4 -9 -4 -5 0 -7 9 -4 20
3 11 10 20 15 20 6 0 7 -7 4 -16z m-116 -24 c26 -16 3 -22 -27 -6 -23 13 -24
15 -8 15 11 1 27 -3 35 -9z m-10 -45 c6 -8 8 -19 4 -26 -4 -7 -2 -10 7 -7 8 3
13 15 12 27 -2 11 2 21 7 21 6 0 9 -3 9 -7 -4 -23 2 -43 11 -38 5 3 19 1 30
-5 17 -9 19 -14 9 -26 -6 -8 -17 -14 -23 -13 -7 0 -6 2 2 6 20 8 13 25 -8 18
-11 -3 -20 -2 -20 2 0 5 -16 9 -35 10 -19 1 -35 -3 -35 -7 0 -12 31 -21 51
-15 15 5 18 1 17 -22 -1 -15 0 -34 3 -42 2 -9 -4 -16 -16 -18 -19 -3 -19 -2
-1 5 17 7 14 11 -22 30 -24 12 -49 19 -59 15 -16 -6 -17 -5 -3 11 8 11 15 24
16 30 0 6 2 18 2 28 2 11 9 15 25 11 21 -4 21 -3 -3 11 -18 11 -20 15 -9 16 9
0 22 -7 29 -15z m842 -67 c-8 -8 -14 -5 -22 16 -14 38 -13 40 12 16 17 -15 19
-23 10 -32z m490 30 c-7 -7 -12 -8 -12 -2 0 6 3 14 7 17 3 4 9 5 12 2 2 -3 -1
-11 -7 -17z m-1448 -4 c3 -8 2 -12 -4 -9 -6 3 -10 10 -10 16 0 14 7 11 14 -7z
m1286 -14 c0 -5 -5 -10 -11 -10 -5 0 -7 5 -4 10 3 6 8 10 11 10 2 0 4 -4 4
-10z m368 -39 c15 11 14 10 0 -6 -22 -23 -43 -9 -31 21 7 17 8 17 11 -4 3 -20
6 -21 20 -11z m-923 -2 c-4 -6 2 -13 14 -16 12 -3 21 -9 21 -14 0 -13 -7 -11
-35 7 -28 18 -32 34 -9 34 8 0 12 -5 9 -11z m705 3 c0 -5 -16 -14 -36 -20 -35
-11 -36 -10 -18 8 19 19 54 27 54 12z m-1130 -6 c0 -2 -7 -7 -16 -10 -8 -3
-12 -2 -9 4 6 10 25 14 25 6z m310 -26 c0 -5 -2 -10 -4 -10 -3 0 -8 5 -11 10
-3 6 -1 10 4 10 6 0 11 -4 11 -10z m-115 -20 c3 -5 1 -10 -4 -10 -6 0 -11 5
-11 10 0 6 2 10 4 10 3 0 8 -4 11 -10z m455 0 c-13 -8 -13 -10 0 -10 10 0 11
-3 3 -11 -17 -17 -37 -1 -22 17 6 8 17 14 23 14 6 0 4 -5 -4 -10z m-560 -10
c-11 -7 -11 -10 -2 -10 7 0 10 -5 6 -11 -4 -8 -9 -7 -15 2 -9 15 -3 29 14 29
7 0 6 -4 -3 -10z m301 0 c28 -16 23 -30 -6 -17 -14 7 -25 15 -25 20 0 10 8 9
31 -3z m-251 -14 c0 -2 -8 -10 -17 -17 -16 -13 -17 -12 -4 4 13 16 21 21 21
13z m56 -11 c18 -14 18 -15 -8 -11 -15 3 -31 0 -34 -6 -5 -7 -2 -8 6 -3 8 5
11 4 6 -3 -4 -6 -13 -9 -22 -5 -13 5 -13 8 2 24 21 23 25 23 50 4z m259 4 c11
-17 -1 -21 -15 -4 -8 9 -8 15 -2 15 6 0 14 -5 17 -11z m-225 -29 c0 -4 -5 -11
-12 -18 -7 -7 -8 -12 -2 -12 6 0 16 6 22 12 17 17 36 -10 20 -29 -8 -10 -7
-13 3 -13 20 0 -23 -29 -43 -30 -20 0 -24 -15 -6 -26 6 -4 16 0 22 9 9 11 16
13 30 5 16 -9 16 -11 1 -28 -16 -18 -16 -18 7 -13 21 6 22 5 9 -10 -10 -12
-10 -17 -2 -17 16 0 -14 -31 -47 -48 -26 -13 -26 -13 -7 8 18 20 18 20 -23 20
-33 0 -40 3 -35 16 4 10 9 12 16 5 7 -7 14 -5 23 7 19 25 16 41 -3 17 -15 -20
-15 -20 -10 3 6 28 -16 40 -38 22 -10 -9 -15 -9 -15 -1 0 6 -6 10 -12 9 -8 -2
-12 6 -11 17 1 10 -3 27 -8 37 -6 12 -6 18 1 18 5 0 10 -4 10 -9 0 -10 12 -9
48 3 22 7 31 26 12 26 -5 0 -7 6 -5 13 5 11 55 18 55 7z m-130 -14 c0 -3 -4
-8 -10 -11 -5 -3 -10 -1 -10 4 0 6 5 11 10 11 6 0 10 -2 10 -4z m954 -21 c-4
-8 -11 -15 -16 -15 -6 0 -5 6 2 15 7 8 14 15 16 15 2 0 1 -7 -2 -15z m-179
-14 c3 -5 1 -13 -5 -16 -6 -4 -8 -15 -5 -26 9 -28 -10 -23 -30 7 -16 25 -16
26 4 19 16 -5 20 -3 15 9 -7 17 11 22 21 7z m-562 -41 c6 -23 -1 -25 -25 -6
-18 13 -14 26 8 26 6 0 14 -9 17 -20z m603 -7 c-10 -10 -19 5 -10 18 6 11 8
11 12 0 2 -7 1 -15 -2 -18z m-1051 -13 c-3 -5 -12 -10 -18 -10 -7 0 -6 4 3 10
19 12 23 12 15 0z m843 -18 c6 -18 -15 -14 -22 4 -4 10 -1 14 6 12 6 -2 14
-10 16 -16z m-298 -12 c0 -17 -30 -18 -39 -1 -9 16 -7 17 14 13 14 -2 25 -8
25 -12z m-298 -46 c-7 -43 -14 -49 -23 -20 -4 16 -6 33 -3 38 10 16 29 2 26
-18z m818 -89 c14 -8 21 -14 15 -14 -5 0 -21 6 -35 14 -14 8 -20 14 -15 14 6
0 21 -6 35 -14z m-550 -20 c-7 -9 -15 -13 -17 -11 -7 7 7 26 19 26 6 0 6 -6
-2 -15z m605 -5 c3 -5 1 -10 -4 -10 -6 0 -11 5 -11 10 0 6 2 10 4 10 3 0 8 -4
11 -10z m120 0 c-3 -5 -14 -10 -23 -10 -15 0 -15 2 -2 10 20 13 33 13 25 0z
m-925 -82 c0 -3 -9 -6 -20 -5 -11 1 -20 5 -20 9 0 3 9 6 20 5 11 -1 20 -5 20
-9z m-276 -94 c3 -8 2 -12 -4 -9 -6 3 -10 10 -10 16 0 14 7 11 14 -7z m-779
-114 c0 -17 -1 -30 -1 -30 -8 0 -33 53 -29 60 11 18 30 -1 30 -30z m45 20 c0
-5 -4 -10 -10 -10 -5 0 -10 5 -10 10 0 6 5 10 10 10 6 0 10 -4 10 -10z m375
-88 c-3 -3 -11 0 -18 7 -9 10 -8 11 6 5 10 -3 15 -9 12 -12z m35 -23 c0 -6 -4
-7 -10 -4 -5 3 -10 11 -10 16 0 6 5 7 10 4 6 -3 10 -11 10 -16z m-347 -133 c4
-10 1 -13 -9 -9 -15 6 -19 23 -5 23 5 0 11 -7 14 -14z m-53 -17 c0 -6 -4 -7
-10 -4 -5 3 -10 11 -10 16 0 6 5 7 10 4 6 -3 10 -11 10 -16z m160 -90 c0 -6
-4 -7 -10 -4 -5 3 -10 11 -10 16 0 6 5 7 10 4 6 -3 10 -11 10 -16z m290 -39
c0 -5 -7 -7 -15 -4 -8 4 -12 10 -9 15 6 11 24 2 24 -11z m21 -82 c-11 -10 -13
-10 -7 0 4 6 2 12 -4 12 -6 0 -8 5 -4 11 4 8 9 8 17 0 8 -8 7 -14 -2 -23z m30
-18 c3 -20 4 -25 12 -37 12 -18 -9 -25 -24 -7 -10 13 -10 17 2 25 10 6 10 9 2
9 -7 0 -13 5 -13 10 0 6 5 10 10 10 6 0 11 -4 11 -10z m577 -45 c-3 -3 -9 2
-12 12 -6 14 -5 15 5 6 7 -7 10 -15 7 -18z m-478 -15 c0 -5 -5 -10 -11 -10 -5
0 -7 5 -4 10 3 6 8 10 11 10 2 0 4 -4 4 -10z m-100 -20 c0 -5 -5 -10 -11 -10
-5 0 -7 5 -4 10 3 6 8 10 11 10 2 0 4 -4 4 -10z m77 -37 c7 -15 10 -29 7 -32
-7 -8 -34 29 -34 46 0 22 14 15 27 -14z m587 -15 c-3 -4 -9 -8 -15 -8 -5 0 -9
4 -9 8 0 5 7 9 15 9 8 0 12 -4 9 -9z m-381 -23 c-3 -9 -8 -14 -10 -11 -3 3 -2
9 2 15 9 16 15 13 8 -4z m-273 -45 c8 -5 11 -12 8 -16 -4 -3 -14 1 -23 10 -18
17 -9 21 15 6z m102 -65 c6 -27 -1 -32 -19 -14 -12 12 -6 52 7 44 4 -3 10 -16
12 -30z m116 17 c2 -7 -3 -12 -12 -12 -9 0 -16 7 -16 16 0 17 22 14 28 -4z
m-59 -15 c6 -8 8 -17 5 -20 -7 -7 -44 14 -44 25 0 13 27 9 39 -5z m91 9 c0 -3
-4 -8 -10 -11 -5 -3 -10 -1 -10 4 0 6 5 11 10 11 6 0 10 -2 10 -4z"/>
<path d="M1301 4600 c-13 -11 -19 -20 -14 -20 6 0 18 9 28 20 23 25 17 25 -14
0z"/>
<path d="M1340 4600 c-28 -28 -18 -38 11 -11 12 11 20 23 17 27 -4 3 -16 -4
-28 -16z"/>
<path d="M1549 4430 c-31 -26 -15 -26 18 0 14 11 21 20 15 20 -5 0 -20 -9 -33
-20z"/>
<path d="M1925 4381 c-3 -5 -2 -12 3 -15 5 -3 9 1 9 9 0 17 -3 19 -12 6z"/>
<path d="M1890 4070 c-8 -5 -11 -12 -7 -16 4 -4 13 -2 19 4 15 15 7 24 -12 12z"/>
<path d="M1865 4005 c-22 -18 -26 -24 -13 -25 18 0 48 25 48 41 0 13 -1 12
-35 -16z"/>
<path d="M1752 3018 c-23 -23 -11 -78 12 -59 6 5 16 10 21 10 6 1 10 9 10 19
0 11 -6 16 -17 14 -12 -2 -16 2 -12 13 7 18 2 19 -14 3z"/>
<path d="M1680 2991 c-6 -12 -7 -21 -1 -21 10 0 24 30 17 37 -2 3 -9 -5 -16
-16z"/>
<path d="M1677 2654 c-10 -13 -14 -24 -9 -24 13 0 35 27 30 39 -1 5 -11 -2
-21 -15z"/>
<path d="M1820 2580 c0 -5 5 -10 11 -10 5 0 7 5 4 10 -3 6 -8 10 -11 10 -2 0
-4 -4 -4 -10z"/>
<path d="M1800 2562 c0 -5 7 -15 15 -22 8 -7 15 -9 15 -6 0 4 -7 14 -15 22 -8
9 -15 11 -15 6z"/>
<path d="M1630 2510 c0 -5 5 -10 10 -10 6 0 10 5 10 10 0 6 -4 10 -10 10 -5 0
-10 -4 -10 -10z"/>
<path d="M1990 2489 c0 -5 5 -7 10 -4 6 3 10 8 10 11 0 2 -4 4 -10 4 -5 0 -10
-5 -10 -11z"/>
<path d="M1955 2401 c-3 -5 -1 -12 5 -16 5 -3 10 1 10 9 0 18 -6 21 -15 7z"/>
<path d="M1264 2259 c0 -10 4 -19 8 -19 4 0 8 6 8 14 0 8 -4 17 -8 20 -4 2 -8
-4 -8 -15z"/>
<path d="M1226 2251 c-17 -6 -17 -8 -4 -14 10 -3 19 0 22 9 3 8 4 14 3 13 -1
0 -11 -4 -21 -8z"/>
<path d="M824 4270 c-34 -13 -35 -25 -3 -25 21 0 29 5 29 18 0 9 -1 17 -2 16
-2 0 -13 -4 -24 -9z"/>
<path d="M893 4225 c-7 -8 -9 -16 -4 -19 5 -3 12 1 15 10 8 22 4 25 -11 9z"/>
<path d="M783 4203 c-25 -5 -53 -33 -33 -33 9 0 8 -7 -4 -25 -19 -29 -11 -33
18 -7 19 17 19 17 3 -7 -15 -23 -15 -26 3 -49 23 -28 26 -43 8 -39 -8 1 -13
-9 -13 -25 -1 -15 -9 -36 -19 -47 -17 -18 -17 -21 -3 -27 22 -8 34 1 41 33 4
16 18 39 32 53 35 36 94 117 94 129 0 21 -29 10 -50 -19 -13 -18 -26 -27 -35
-24 -8 4 -12 11 -8 18 3 6 -4 2 -17 -9 l-23 -20 11 20 c5 11 22 31 36 44 31
29 35 52 4 25 -19 -17 -21 -17 -15 -1 4 9 3 16 -1 16 -4 -1 -17 -4 -29 -6z
m72 -107 c-15 -20 -32 -36 -37 -36 -5 0 5 15 21 33 17 17 31 36 31 41 0 5 3 7
6 3 3 -3 -6 -22 -21 -41z"/>
<path d="M710 4179 c0 -5 5 -7 10 -4 6 3 10 8 10 11 0 2 -4 4 -10 4 -5 0 -10
-5 -10 -11z"/>
<path d="M1675 4160 c-3 -5 1 -10 10 -10 9 0 13 5 10 10 -3 6 -8 10 -10 10 -2
0 -7 -4 -10 -10z"/>
<path d="M915 4130 c-18 -20 -18 -20 1 -17 25 3 44 16 44 28 0 16 -26 10 -45
-11z"/>
<path d="M1282 4120 c-7 -12 -17 -18 -22 -15 -6 3 -10 2 -10 -4 0 -17 20 -23
26 -7 5 12 10 13 27 3 12 -7 25 -16 29 -22 5 -6 8 -5 8 3 0 7 4 10 10 7 6 -3
7 1 4 9 -3 9 -1 16 5 16 6 0 11 6 11 13 -1 6 -9 2 -18 -9 -16 -18 -22 -20 -40
-10 -17 9 -20 14 -10 24 7 7 8 12 2 12 -5 0 -15 -9 -22 -20z"/>
<path d="M1663 4133 c4 -3 2 -12 -4 -20 -9 -9 -8 -13 0 -13 6 0 11 2 11 4 0 2
3 11 6 20 4 10 1 16 -7 16 -7 0 -9 -3 -6 -7z"/>
<path d="M722 4078 c-21 -21 -13 -32 8 -13 20 18 21 18 14 0 -5 -13 -4 -16 4
-11 16 10 15 36 -1 36 -7 0 -18 -5 -25 -12z"/>
<path d="M1288 4073 c7 -3 16 -2 19 1 4 3 -2 6 -13 5 -11 0 -14 -3 -6 -6z"/>
<path d="M985 4040 c-10 -11 -15 -20 -11 -20 4 0 16 9 28 20 12 11 17 20 11
20 -5 0 -18 -9 -28 -20z"/>
<path d="M1495 4030 c-3 -5 -1 -10 4 -10 6 0 11 5 11 10 0 6 -2 10 -4 10 -3 0
-8 -4 -11 -10z"/>
<path d="M1470 3985 c-7 -9 -11 -17 -9 -20 3 -2 10 5 17 15 14 24 10 26 -8 5z"/>
<path d="M1003 3975 c-3 -9 -3 -18 -1 -21 3 -3 8 4 11 16 6 23 -1 27 -10 5z"/>
<path d="M1597 3953 c-12 -12 -7 -22 8 -17 8 4 15 10 15 15 0 11 -14 12 -23 2z"/>
<path d="M1432 3928 c-21 -21 -13 -32 8 -13 12 11 24 15 28 9 4 -5 6 -8 3 -7
-6 4 -39 -42 -35 -49 7 -11 44 4 44 17 0 7 5 15 12 17 6 2 9 12 5 21 -7 20
-47 23 -65 5z"/>
<path d="M732 3895 c4 -4 -1 -20 -12 -35 -22 -30 -24 -40 -12 -40 5 0 16 16
25 35 12 26 13 36 4 41 -7 4 -9 4 -5 -1z"/>
<path d="M1505 3870 c-3 -5 -1 -10 5 -10 6 0 8 -5 5 -10 -3 -6 -18 -8 -33 -5
-23 4 -24 4 -7 -4 35 -17 51 -12 53 14 2 25 -11 34 -23 15z"/>
<path d="M746 3852 c-4 -7 -5 -12 -2 -12 2 0 1 -13 -4 -30 -12 -41 2 -38 22 5
8 19 12 32 8 30 -5 -3 -10 0 -12 7 -3 9 -6 9 -12 0z"/>
<path d="M706 3765 c-9 -26 -7 -32 5 -12 6 10 9 21 6 23 -2 3 -7 -2 -11 -11z"/>
<path d="M731 3747 c-13 -21 -12 -21 5 -5 10 10 16 20 13 22 -3 3 -11 -5 -18
-17z"/>
<path d="M641 3667 c-13 -21 -12 -21 5 -5 10 10 16 20 13 22 -3 3 -11 -5 -18
-17z"/>
<path d="M1122 3580 c-14 -24 -15 -30 -3 -30 5 0 13 10 17 22 6 21 7 20 19 -8
12 -29 12 -29 19 -6 4 13 5 26 2 30 -15 14 -43 10 -54 -8z"/>
<path d="M1200 3581 c-15 -28 -12 -51 5 -51 8 0 15 4 15 10 0 5 7 7 15 4 8 -4
15 -1 15 6 0 6 4 9 9 5 5 -3 13 0 17 6 4 8 3 9 -4 5 -8 -5 -12 0 -12 13 0 28
-45 29 -60 2z"/>
<path d="M1633 3525 c-1 -19 0 -35 2 -35 11 0 24 40 19 54 -10 26 -19 18 -21
-19z"/>
<path d="M1140 3515 c-7 -9 -8 -15 -2 -15 5 0 12 7 16 15 3 8 4 15 2 15 -2 0
-9 -7 -16 -15z"/>
<path d="M1582 3470 c0 -14 2 -19 5 -12 2 6 2 18 0 25 -3 6 -5 1 -5 -13z"/>
<path d="M325 3360 c-3 -5 -1 -10 4 -10 6 0 11 5 11 10 0 6 -2 10 -4 10 -3 0
-8 -4 -11 -10z"/>
<path d="M288 3287 c-13 -31 -9 -47 11 -47 11 0 23 4 26 10 3 5 0 7 -9 4 -10
-4 -15 3 -18 23 -2 23 -4 25 -10 10z"/>
<path d="M310 3125 c7 -9 15 -13 17 -11 7 7 -7 26 -19 26 -6 0 -6 -6 2 -15z"/>
<path d="M1360 3109 c0 -5 5 -7 10 -4 6 3 10 8 10 11 0 2 -4 4 -10 4 -5 0 -10
-5 -10 -11z"/>
<path d="M1426 3084 c-10 -25 1 -29 14 -5 6 12 7 21 1 21 -5 0 -12 -7 -15 -16z"/>
<path d="M11 2774 c0 -11 3 -14 6 -6 3 7 2 16 -1 19 -3 4 -6 -2 -5 -13z"/>
<path d="M21 2734 c0 -11 3 -14 6 -6 3 7 2 16 -1 19 -3 4 -6 -2 -5 -13z"/>
<path d="M910 2720 c0 -5 5 -10 11 -10 5 0 7 5 4 10 -3 6 -8 10 -11 10 -2 0
-4 -4 -4 -10z"/>
<path d="M885 2710 c3 -5 8 -10 11 -10 2 0 4 5 4 10 0 6 -5 10 -11 10 -5 0 -7
-4 -4 -10z"/>
<path d="M1162 2674 c-7 -8 -8 -14 -3 -14 10 0 25 19 20 25 -2 1 -10 -3 -17
-11z"/>
<path d="M160 2615 c0 -8 5 -15 10 -15 6 0 10 7 10 15 0 8 -4 15 -10 15 -5 0
-10 -7 -10 -15z"/>
<path d="M578 2595 c-3 -13 -1 -22 4 -19 5 3 15 -2 22 -11 11 -16 13 -16 26 0
12 15 12 16 -6 13 -14 -2 -19 3 -18 20 1 30 -22 28 -28 -3z"/>
<path d="M1170 2601 c0 -5 7 -12 16 -15 24 -9 28 -7 14 9 -14 17 -30 20 -30 6z"/>
<path d="M138 2554 c-19 -37 -24 -74 -10 -74 11 0 35 72 31 92 -3 11 -10 5
-21 -18z"/>
<path d="M688 2582 c-18 -3 -26 -32 -9 -32 10 0 36 29 30 33 -2 2 -12 2 -21
-1z"/>
<path d="M1250 2570 c0 -5 1 -10 3 -10 1 0 17 -4 35 -9 41 -12 41 -7 0 13 -37
19 -38 19 -38 6z"/>
<path d="M699 2543 c-13 -16 -12 -17 4 -4 9 7 17 15 17 17 0 8 -8 3 -21 -13z"/>
<path d="M1335 2549 c-11 -17 1 -21 15 -4 8 9 8 15 2 15 -6 0 -14 -5 -17 -11z"/>
<path d="M340 2530 c-12 -7 -12 -12 -3 -21 15 -15 26 -7 21 15 -2 11 -7 13
-18 6z"/>
<path d="M201 2481 c-9 -6 -10 -11 -2 -15 6 -4 11 -18 11 -32 0 -13 5 -24 10
-24 12 0 13 49 2 67 -4 7 -13 9 -21 4z"/>
<path d="M333 2473 c-3 -10 -12 -25 -20 -34 -19 -22 -24 -73 -10 -104 16 -33
25 -32 19 4 -5 38 12 47 32 16 9 -14 21 -25 26 -25 6 0 3 11 -5 24 -13 19 -13
25 -3 29 10 3 11 8 1 26 -7 11 -13 32 -13 45 0 31 -18 44 -27 19z"/>
<path d="M266 2373 c-4 -9 -2 -21 4 -27 7 -7 10 -2 10 17 0 31 -5 34 -14 10z"/>
<path d="M226 2295 c8 -85 19 -102 27 -41 5 36 2 53 -13 79 l-21 32 7 -70z"/>
<path d="M374 2294 c3 -9 6 -25 6 -36 0 -31 10 -16 15 21 3 23 0 31 -12 31
-10 0 -13 -6 -9 -16z"/>
<path d="M327 2293 c-12 -11 -8 -34 8 -49 13 -13 14 -11 8 18 -7 39 -8 40 -16
31z"/>
<path d="M796 2252 c-2 -4 -1 -14 4 -22 7 -11 9 -9 7 8 -1 24 -3 26 -11 14z"/>
<path d="M805 2061 c-3 -5 -1 -12 5 -16 5 -3 10 -3 10 2 0 9 20 -19 20 -29 0
-3 -10 -4 -22 -2 -21 4 -21 4 -3 -4 11 -5 26 -7 33 -5 7 3 12 -3 13 -13 0 -11
3 -14 6 -7 5 14 -34 83 -47 83 -5 0 -11 -4 -15 -9z"/>
<path d="M870 2036 c0 -8 4 -17 9 -20 5 -4 7 3 4 14 -6 23 -13 26 -13 6z"/>
<path d="M1070 2029 c0 -5 5 -7 10 -4 6 3 10 8 10 11 0 2 -4 4 -10 4 -5 0 -10
-5 -10 -11z"/>
<path d="M816 1968 c-9 -13 -16 -17 -16 -9 0 8 -3 12 -6 8 -3 -3 -3 -11 1 -17
5 -8 13 -5 27 10 11 12 18 24 15 26 -3 3 -12 -5 -21 -18z"/>
<path d="M844 1958 c-15 -20 -17 -65 -2 -74 7 -4 10 -3 5 1 -4 5 -1 18 7 29
15 25 7 67 -10 44z"/>
<path d="M412 1805 c0 -16 2 -22 5 -12 2 9 2 23 0 30 -3 6 -5 -1 -5 -18z"/>
<path d="M556 1707 c3 -10 9 -15 12 -12 3 3 0 11 -7 18 -10 9 -11 8 -5 -6z"/>
<path d="M404 1691 c9 -10 16 -25 16 -33 0 -9 7 -21 15 -28 12 -10 15 -10 15
3 0 29 -22 65 -42 70 -18 5 -19 4 -4 -12z"/>
<path d="M450 1515 c0 -8 4 -15 10 -15 5 0 7 7 4 15 -4 8 -8 15 -10 15 -2 0
-4 -7 -4 -15z"/>
<path d="M615 1500 c3 -5 8 -10 11 -10 2 0 4 5 4 10 0 6 -5 10 -11 10 -5 0 -7
-4 -4 -10z"/>
<path d="M465 1480 c3 -5 8 -10 11 -10 2 0 4 5 4 10 0 6 -5 10 -11 10 -5 0 -7
-4 -4 -10z"/>
<path d="M620 1450 c18 -12 30 -13 30 -2 0 4 -10 9 -22 9 -18 2 -20 0 -8 -7z"/>
<path d="M456 1432 c-3 -5 1 -17 8 -27 7 -10 15 -14 19 -9 3 5 -1 17 -8 27 -7
10 -16 14 -19 9z"/>
<path d="M540 1403 c0 -4 5 -15 10 -23 8 -13 10 -13 10 2 0 9 -4 20 -10 23 -5
3 -10 3 -10 -2z"/>
<path d="M647 1310 c3 -11 9 -20 15 -20 5 0 4 9 -2 20 -6 11 -12 20 -14 20 -2
0 -2 -9 1 -20z"/>
</g>
</svg>
